<?xml version="1.0" encoding="utf-8"?>
<!-- Generator: Adobe Illustrator 23.0.1, SVG Export Plug-In . SVG Version: 6.00 Build 0)  -->
<svg version="1.1" xmlns="http://www.w3.org/2000/svg" xmlns:xlink="http://www.w3.org/1999/xlink" x="0px" y="0px"
	 viewBox="0 0 2625.07 1571.34" style="enable-background:new 0 0 2625.07 1571.34;" xml:space="preserve">
<style type="text/css">
	.st0{fill:#F1F1EF;}
	.st1{fill:#F05F3E;}
	.st2{fill:#2C355C;}
	.st3{display:none;fill:none;stroke:#2C355C;stroke-width:10;stroke-miterlimit:10;}
	.st4{fill:none;stroke:#F1F1EF;stroke-width:1.5;stroke-miterlimit:10;}
	.st5{fill:none;stroke:#F1F1EF;stroke-width:1.5;stroke-linecap:round;stroke-linejoin:round;stroke-miterlimit:10;}
	.st6{fill:#2C355C;stroke:#F1F1EF;stroke-width:1.5;stroke-linecap:round;stroke-linejoin:round;stroke-miterlimit:10;}
	.st7{fill:none;stroke:#2C355C;stroke-width:10;stroke-linecap:round;stroke-miterlimit:10;}
	.st8{fill:#212845;}
	.st9{fill:none;stroke:#F05F3E;stroke-width:20;stroke-miterlimit:10;}
	.st10{fill:#212845;stroke:#212845;stroke-miterlimit:10;}
	.st11{fill:#A97A2F;}
	.st12{fill:#7E5B23;}
	.st13{fill:#2C7633;}
	.st14{fill:#42210B;}
	.st15{fill:#FFCC99;}
	.st16{fill:#57915C;}
	.st17{fill:none;stroke:#F05F3E;stroke-width:10;stroke-miterlimit:10;}
	.st18{fill:#F0C1B6;}
	.st19{fill:#86B6BC;}
	.st20{fill:#5E9DA5;}
	.st21{fill:#FBB03B;}
	.st22{fill:#F0907A;}
	.st23{fill:#E3E3E3;}
	.st24{fill:#999999;}
	.st25{fill:#CCCCCC;}
</style>
<g id="prvi_slajd">
</g>
<g id="drugi_slajd">
</g>
<g id="treći_slajd">
</g>
<g id="četvrti_slajd">
</g>
<g id="peti_slajd">
</g>
<g id="šesti_slajd">
</g>
<g id="sedmi_slajd">
</g>
<g id="osmi_slajd">
</g>
<g id="deveti_slajd">
</g>
<g id="deseti_slajd">
</g>
<g id="jedanaesti_slajd">
</g>
<g id="dvanaesti_slajd">
	<path class="st8" d="M0,1570.99h2503.61c26.62-57.55,41.49-121.65,41.49-189.22c0-186.27-112.88-346.17-273.96-415.04
		c14.27-43.93,21.98-90.82,21.98-139.51c0-249.18-202-451.18-451.18-451.18c-34.26,0-67.63,3.83-99.71,11.06
		C1696.5,186.36,1516.9,36.55,1302.31,36.55c-171.88,0-321.3,96.11-397.48,237.52c-14.85-4.36-30.55-6.71-46.81-6.71
		c-91.65,0-165.95,74.3-165.95,165.95c0,0.37,0.01,0.73,0.01,1.1C457.66,450.65,272.53,645.95,272.53,884.5
		c0,18.05,1.07,35.85,3.13,53.34c-33.61,30.37-54.73,74.3-54.73,123.16c0,20.21,3.62,39.57,10.23,57.48
		c-50.19,57.25-80.62,132.27-80.62,214.39c0,5.93,0.16,11.82,0.48,17.67C80.53,1406.46,27.16,1482.98,0,1570.99z"/>
	<rect x="1464.11" y="646.01" class="st1" width="517" height="924.55"/>
	<polygon class="st10" points="1760.79,1435.9 1464.11,1570.56 1464.11,646.01 1760.79,780.68 	"/>
	<g>
		<path class="st11" d="M836.59,1121.74c2.75-0.01,2.33-5.04,2.98-6.95c4.42-13.01,18.52-12.25,19.48-25.84
			c6.87-2.32,13.87-1.46,20.85-0.78c2.8,2,1.21,4.55,0.59,6.75c-4.88,17.61-9.99,35.15-15.27,52.64
			c-7.73,25.6-15.3,51.25-23.75,76.64c-0.94,2.81-0.65,5.96-2.46,8.51c-2.84-0.08-2.21,2.47-2.67,3.88
			c-7.78,23.67-15.57,47.34-24.04,70.78c-3.42,9.45-8.8,16.86-16.61,23.05c-35.52,28.14-73.26,53.15-110.73,78.52
			c-21.35,14.45-42.96,28.51-64.45,42.75c-3.27-0.76-4.49-3.77-6.43-5.96c-6.06-6.84-11.92-13.86-17.95-20.73
			c-1.2-1.37-2.56-2.69-2.11-4.8c20.18-16.34,40.43-32.59,60.52-49.03c29.63-24.26,59.29-48.47,88.25-73.54
			c5.6-4.84,8.13-9.89,8.26-17.45c0.8-46.96-0.21-93.92,0.06-140.88c0.01-1.83-0.02-35.75,0.01-37.58
			C751.38,1101.08,810.85,1121.82,836.59,1121.74z"/>
		<path class="st12" d="M839.02,1232.71c-1.01-2.71,0.11-5.2,0.87-7.68c9.43-30.72,18.98-61.41,28.31-92.16
			c4.42-14.57,8.45-29.25,12.65-43.88c3.41-2.36,7.19-1.47,10.89-1.2c1.97,0.14,2.61,1.68,3.04,3.32
			c4.05,18.86,8.03,37.73,12.16,56.57c16.87,77.01,33.79,154.01,50.69,231.01c10.31,46.95,20.63,93.9,30.93,140.85
			c0.25,1.14,0.4,2.29,0.6,3.44c-0.78,0.98-1.88,1.44-3.05,1.46c-12.4,0.26-24.81,1.1-37.21,0c-10.04-26.89-20.2-53.74-30.1-80.68
			c-25.37-69.04-51.15-137.93-78.24-206.32C839.94,1235.89,839.53,1234.28,839.02,1232.71z"/>
		<path class="st13" d="M987.45,1133.09c-2.41,2.58-4.06,5.11-8.95,4.03c-28.97-6.41-55.48-17.87-78.81-36.37
			c-0.38-0.3-0.84-0.5-1.27-0.75c-1.91-0.86-2.54-2.57-2.76-4.44c-2.93-24.95-10.87-48.62-18.53-72.36
			c-8.32-25.8-16.49-51.64-21.57-78.33c-3.37-17.67-5.53-35.48-5.1-53.51c0.05-2.27-0.56-5.2,2.66-6.31
			c24.55,28.94,41.55,62.49,58.6,96c16.14,31.73,32.23,63.48,53.59,92.18c10.36,13.92,21.87,26.8,34.93,38.28
			c1.35,1.19,4.43,1.81,2.9,4.88C999.09,1123.07,994.07,1128.83,987.45,1133.09z"/>
		<path class="st14" d="M810.63,844.18c-3.82-2.3-6.52-1.42-9.76,1.85c-5.01,5.04-12.4,5.37-18.33,1.77c-1.14-0.69-1.76-0.77-3-0.29
			c-15.26,6.03-23.99-0.25-22.52-16.15c0.09-0.97,0.59-1.97-0.42-2.73c-6.98-5.29-5.35-11.9-2.58-18.44c1.2-2.83,1.2-4.9-0.27-7.75
			c-2.45-4.74-1.05-9.77,0.95-14.44c0.82-1.91,1.13-3.44,0.48-5.6c-3.59-11.91,3.74-23.25,13.53-24.05
			c1.76-0.14,2.06-1.19,2.68-2.36c0.92-1.74,1.66-4.16,3.17-4.92c5.93-3.01,9.5-8.53,14.37-12.61c3.35-2.81,7.19-4.36,11.48-2.01
			c1.78,0.98,2.63-0.01,3.79-1.06c5.53-5.02,11.87-6.42,18.91-3.75c1.5,0.57,2.77,0.81,4.28,0.13c3.81-1.73,7.66,1.11,10.92,0.52
			c3.31-0.6,5.92-4.66,9.86-5.31c7.41-1.23,14.69-1.09,20.87,3.94c1.64,1.33,2.8,1.01,4.43,0.47c10.6-3.52,19.37,0.5,23.35,10.7
			c0.48,1.23,0.63,2.29,2.18,2.93c9.22,3.79,11.45,10.88,6.24,19.4c-0.69,1.13-1.39,2.36-2.4,3.16c-2.69,2.15-3.94,3.73-1.08,7.25
			c2.63,3.25-0.19,6.88-1.93,10.1c-0.54,1.01-2.57,1.58-1.22,3.24c2.58,3.18,3.33,6.69,0.88,10.05c-2.68,3.67-6.63,3.16-10.48,2.1
			c-2.95-0.73-3.44-3.34-4.32-5.65c-1.95-5.16-4.07-10.2-7.99-14.28c-1.97-2.05-3.74-3.07-6.33-0.77c-2.54,2.26-5.85,3.13-9.09,3.93
			c-4.94,1.21-8.14,4.22-9.97,8.92c-1.33,3.41-2.44,6.91-4.15,10.17c-0.86,1.63-1.73,3.23-3.03,4.55c-3.7,3.76-6.14,3.66-8.3-1.1
			c-2.66-5.87-6.41-8.69-15.68-7.06c-4.98,0.87-7.78,3.66-8.12,8.71c-0.4,5.9,0.93,11.49,6.43,14.76c4,2.38,4.65,5.64,3.1,9.34
			c-1.84,4.4-1.35,10.29-7.25,12.33C813.08,844.4,811.85,843.64,810.63,844.18z"/>
		<path class="st0" d="M853.12,885.05c-2.09,1.21-1.28,3.29-1.31,4.96c-0.48,27.16,4.04,53.67,10.75,79.87
			c7.26,28.38,17.46,55.87,25.56,84c3.96,13.76,7.37,27.63,8.94,41.91c0.16,1.44,0.9,2.81,1.36,4.21c-1.19,0.69-1.07,1.97-1.37,3.05
			c-1.3,4.66-4.25,6.86-9.17,6.29c-1.75-0.2-5.69-0.92-7.8-0.9c-3.43,0.03-6.86-0.26-10.28-0.42c-7.24-0.58-14.49-1.16-21.73-1.75
			c6.28-69.01-5.77-136.34-18.65-203.58c-2.19-11.43-4.63-22.81-6.95-34.21c2.23-1.75,4.54-0.45,6.64,0.12
			c4.3,1.16,8.93,1.31,12.83,3.82c0.67,1.13,1.79,1.32,2.95,1.37c4.68,0.2,7.94,1.64,6.64,7.3
			C851.15,882.72,852.5,883.76,853.12,885.05z"/>
		<path class="st15" d="M841.93,872.42c-6.72-0.19-12.95-2.77-19.47-3.95c-4.6-2.5-9.76-2.51-14.74-3.3
			c1.74-6.16,3.48-12.32,5.22-18.47c0.74-0.92-0.01-2.34,1.05-3.15c5.72-4.15,5.93-10.65,7.12-16.73c0.35-1.78-1.08-2.1-2.29-2.69
			c-7.82-3.8-10.88-15.65-5.88-22.63c4.86-6.79,18.56-5.45,23.11,2.1c1.13,1.87,0.89,5.47,3.59,5.34c2.93-0.14,4.53-3.16,5.72-5.73
			c1.82-3.9,3.53-7.87,5-11.91c1.68-4.63,4.8-7.41,9.5-8.63c4.33-1.13,8.81-2.01,11.98-5.61c1.53-1.74,2.6-0.47,3.73,0.46
			c5.33,4.41,8.2,10.35,10.26,16.75c0.72,2.23,1.44,4.4,3.2,6.04c-2,4.16-0.13,8.4-0.17,12.6c-0.15,15.37-0.92,30.61-7.67,44.81
			c-3.8,8-7.8,9.66-16.52,7.58c-8.71-2.07-16.1-6.9-24.21-11.67C840.98,860.27,841.45,866.35,841.93,872.42z"/>
		<path d="M948.9,1524.43c1.49-1.53,3.42-0.92,5.16-0.95c11.7-0.21,23.4-0.35,35.1-0.51c1.96,0.22,3.85,0.35,5.65,1.54
			c23.08,15.32,48.64,24.89,75.17,32.2c1.8,0.49,4.32,0.07,4.5,3.48c0.32,5.94,0.49,6.02-5.53,6.08
			c-21.63,0.21-43.26,0.21-64.88,0.71c-10.75,0.25-21.14-2.04-31.68-3.27c-2-0.23-4.43-1.59-4.29,2.31c0.05,1.4-1.34,1.21-2.27,1.22
			c-5.32,0.08-10.65-0.01-15.97,0.22c-3.16,0.13-2.48-1.97-2.42-3.64c0.45-12.13,0.96-24.27,1.45-36.4
			C948.94,1526.43,948.9,1525.43,948.9,1524.43z"/>
		<path d="M594.03,1420.2c8.83,10.49,17.66,20.99,26.49,31.48c2.5,26.66,11.16,51.55,21.78,75.88c0.66,1.52,1.39,3.02,2.08,4.53
			c1.69,3.73,0.38,6.7-3.36,8.49c-1.68,0.81-2.04-0.39-2.71-1.17c-16.68-19.48-33.54-38.82-49.88-58.58
			c-4.94-5.97-8.43-13.14-12.6-19.75c-0.91-1.43-1.5-3.61-3.87-1.31c-1.27,1.23-2-0.31-2.71-1.12c-3.28-3.77-6.46-7.63-9.82-11.33
			c-1.66-1.83-1.34-2.93,0.51-4.35c10.03-7.72,20.03-15.48,29.91-23.37C591.81,1418.03,592.77,1419.17,594.03,1420.2z"/>
		<path class="st15" d="M654.2,1180.57c9.65,0.66,19.3,1.32,28.94,1.98c-6.64,10.56-5.59,21.51-1.64,32.6
			c1.39,3.92,2.74,7.86,4.35,11.69c1.29,3.07,0.11,3.8-2.76,3.78c-3.79-0.02-6.09-2.29-8.22-4.94c-7.21-8.98-10.45-9.8-20.98-5.32
			c-7.04,2.99-13.66,6.92-20.99,9.27c-7.4,2.37-14.44,1.59-21.15-2.25c-6.91-3.95-7.11-9.02-0.35-13.19
			c9.78-6.04,19.43-12.29,28.46-19.4C645.15,1190.62,651.26,1187.16,654.2,1180.57z"/>
		<path class="st15" d="M987.45,1133.09c5.23-5.57,10.46-11.13,15.69-16.7c2.02,2.81,4.8,4.42,8.03,5.58
			c12.71,4.56,24.99,10.07,36.39,17.38c1.4,0.9,2.83,1.79,4.05,2.9c1.37,1.24,2.63,2.81,1.78,4.81c-0.8,1.9-2.7,1.71-4.35,1.59
			c-7.31-0.53-14.6-1.37-21.92-1.64c-7.93-0.3-9.22,1.71-6.56,9.13c0.28,0.78,0.64,1.56,0.78,2.37c0.33,2,0.61,4.19-1.34,5.47
			c-1.97,1.28-3.5-0.44-4.82-1.54c-8.64-7.23-15.01-16.46-21.85-25.26C991.75,1135.17,990.29,1133.21,987.45,1133.09z"/>
		<path class="st16" d="M712.16,1140.34c-3.15,3.09-4.42,7.3-6.48,11.02c-5.19,9.39-10.56,18.68-16.24,27.79
			c-1.57,2.52-3.25,4.02-6.31,3.39c-6.49,2.24-13,0.12-19.49-0.01c-3.21-0.06-6.63,0.25-9.45-1.97c-1.89-1.16-1.05-3.01-1.02-4.54
			c0.35-19.51,2.72-38.86,5.67-58.1c4.85-31.64,12.86-62.49,24.6-92.31c14.3-36.31,33.53-69.77,58.26-100
			c2.39-2.92,3.69-4.36-0.83-7c-12.94-7.57-22.19-37.44-16.42-51.16c4.08-9.73,15.76-14.99,29.15-13.38
			c10.64,1.28,20.57,5.34,30.94,7.68c7.65,1.72,15.35,2.92,23.17,3.43c5.55-1.9,10.54-0.39,15.3,2.5c3.39,9.95,4.86,20.36,6.97,30.6
			c8.56,41.57,15.54,83.39,19.33,125.7c2.48,27.73,2.77,55.44-0.06,83.17c-1.39,12.79-4.25,25.23-8.86,37.25
			c-1.36,3.56-3.58,5.96-7.79,5.68c-24.23-1.6-48.46-3.13-72.67-5.13c-0.66-0.05-1.3-0.29-1.91-0.53c-2.36-1.13-2.9-3.52-3.79-5.63
			c-6.68-15.85-8.74-32.7-10.66-49.57c-0.52-4.61-0.96-9.24-0.91-13.54c-3.53,9.72-8.12,19.38-12.58,29.09
			c-4.87,10.57-9.68,21.17-15.1,31.48C714.22,1137.75,713.47,1139.23,712.16,1140.34z"/>
		<path class="st13" d="M757.1,1143.42c-6.7-0.31-13.4-0.62-20.1-0.93c-8.28-0.72-16.56-1.43-24.84-2.15
			c1.58-6.55,5.59-11.98,8.33-18c7.23-15.86,14.81-31.56,21.33-47.74c0.36-0.9,0.56-1.92,1.83-2.4c0.97,16.03,2.7,31.86,5.96,47.53
			C751.32,1127.92,754.79,1135.47,757.1,1143.42z"/>
	</g>
	<g>
		<path class="st18" d="M1332.98,877.33c-3.59-0.4-6.44,1.62-9,3.47c-18.58,13.43-36.91,27.04-53.34,43.29
			c-16.83,16.66-32.06,34.51-45.7,53.71c-10.79,15.19-20,31.45-28.18,48.2c-9.27,18.98-16.87,38.69-23.07,58.87
			c-8.11,26.4-14.05,53.31-17.43,80.75c8.29,3.41,16.79,5.64,25.87,4.36c4.79,2.1,7.43-0.17,10.35-3.99
			c17.11-22.42,31.51-46.58,45.94-70.71c7.06-11.81,13.05-24.26,19.59-36.38c0.75-1.39,1.97-2.53,2.98-3.79
			c1.25-0.19,0.44,0.81,0.69,1.2c-3.5,17.44-7.46,34.79-9.95,52.44c-1.67,11.79-2.39,23.65-3.82,35.44
			c-0.8,6.56,3.88,4.95,7.06,5.87c9.39,2.01,18.85,0.4,28.23,0.23c31.72-0.58,63.44-1.35,95.16-2.18c7.95-0.21,8.44-0.62,10.81-8.14
			c3.7-11.73,3.91-23.93,5.15-36c0.09-41.41-7.27-81.84-16.65-121.92c-7.83-33.45-17.36-66.46-27.78-99.21
			c-0.37-1.18-0.81-2.33-1.43-3.42C1343.92,874.11,1338.51,875.31,1332.98,877.33z"/>
		<path class="st19" d="M1393,1104.12c-2.03,12.41-1.91,25.12-5.84,37.31c-1.37,4.25-3.03,5.11-7.15,5.19
			c-36.86,0.73-73.72,1.76-110.58,2.64c-4.84,0.12-9.71-0.53-14.47,0.8c-11.73,28.26-22.36,56.93-32.02,85.97
			c-11.02,33.09-21.37,66.39-31.87,99.65c-15.75,49.92-30.19,100.29-49.79,148.93c-2.72,6.75-5.86,13.38-9.42,19.73
			c-1.75,3.12-0.3,3.56,1.88,3.75c2.41,0.22,4.91-0.37,6.92,1.54c8.15,2.92,16.59,4.08,25.22,4.12c3.98,0.43,8.07,0.44,11.92,1.42
			c4.28,1.08,6.68-0.16,8.98-3.83c11.85-18.96,23.83-37.86,36.04-56.58c14.05-21.53,27.66-43.34,41.01-65.28
			c13.98-22.99,27.69-46.19,40.78-69.75c12.86-23.14,25.82-46.22,38.12-69.66c7.41-14.11,14.17-28.57,21.18-42.89
			c0.7-1.42,0.72-3.4,3.16-2.69c13.57-30.96,27.33-61.85,35.78-94.75c0.54-2.1,1.95-4.26-0.17-6.31
			C1399.37,1102.66,1396.07,1101.77,1393,1104.12z"/>
		<path class="st20" d="M1402.55,1103.87c-4.07,18.39-10.06,36.18-17.24,53.56c-5.92,14.35-12.07,28.59-18.15,42.87
			c-0.61,1.43-0.57,2.78-0.1,4.19c12.36,10.07,25.73,18.73,39.32,26.96c17.26,10.46,34.83,20.39,53.04,29.17
			c16.25,7.83,32.41,15.84,48.99,22.95c4.63,1.99,6.97,4.15,4.64,9.93c-6.77,16.81-12.97,33.85-19.28,50.84
			c-9.88,26.61-17.98,53.77-25.17,81.22c-1.35,5.15,3.19,3.34,4.45,5.2c7.44,3.78,15.02,7.18,23.46,8.04
			c3.61,1.64,6.09,0.31,8.38-2.7c10.29-13.53,21.13-26.66,30.98-40.49c10.19-14.31,19.69-29.15,27.95-44.67
			c10.07-18.91,19.18-38.32,23.86-59.38c2.1-9.46,3.32-19.03,1.88-28.96c-1.14-7.85-5.11-14.09-9.52-19.8
			c-13.4-17.33-29.15-32.47-45.11-47.48c-16.65-15.65-33.93-30.58-51.13-45.58c-17.21-15-35.32-28.97-53.01-43.42
			c-0.93-0.76-1.65-1.77-2.47-2.67c-0.95-1.27-2.38-1.67-3.79-1.56C1417.21,1102.71,1409.68,1100.82,1402.55,1103.87z"/>
		<path class="st21" d="M1397.21,792.99c4.1-9.54-0.06-13.62-8.93-18.6c-13.22-7.41-27.82-7.69-42.34-7.37
			c-5.58,0.12-7.81-0.65-9.14-6.88c-4.11-19.31-13.18-35.97-32.77-43.33c-20.67-7.75-41.52-5.35-61.77,2.63
			c-17.44,6.87-35.09,11.32-53.84,6.06c-8.27-2.32-15.36-7.14-22.65-11.41c-24.43-14.3-44.74-12.79-67.45,2.4
			c-11,7.36-19.22,16.81-22.59,30.24c-4.34,17.28,4.4,30.76,16.77,36.19c29.78,13.07,57.72,7.22,84.42-9.51
			c10.89-6.82,22.28-12.89,34.98-15.81c5.36-1.23,10.14,0.93,14.23,3.95c16.51,12.19,34.33,11.11,52.87,6.19
			c13.94-3.7,27.86-8.15,42.65-6.6c0.99,0.1,2.06,0.11,2.93,0.52c3.1,1.47,8.34,0.76,8.73,4.92c0.3,3.2-4.6,2.75-7.04,4.17
			c-11.75,6.81-17.83,17.49-19.8,30.33c-1.68,10.99-1.64,22.24,5.77,31.66c6.57,8.35,15.57,12.98,25.9,15.12
			c6.62,1.09,10.56-2.72,9.73-9.38c-0.52-4.23-3.15-7.56-4.79-11.3c-1.5-3.44-1.88-6.65,0.43-9.91c3.04-4.31,6.38-5.37,10.35-1.95
			c4.68,4.03,8.62,3.57,13.23,0.18c2.64-1.94,5.42-3.7,7.99-5.77C1382.28,803.92,1388.22,796.43,1397.21,792.99z"/>
		<path class="st22" d="M1547.98,1003.58c-6.11-2.14-10.78,2.21-15.8,3.99c-17.81,6.33-35.49,13.03-54.51,14.58
			c-11.86,0.97-23.74,0.63-33.62-7.39c-6.41-5.2-10.45-12.48-13.97-19.66c-10.05-20.48-19.36-41.33-29.08-61.98
			c-6.21-13.19-14.11-25.41-21.97-37.65c-3.35,0.11-4.12,0.83-3.53,5.12c1.04,7.54,1.58,15.14,3.17,22.6
			c5.37,25.22,12.92,49.8,22.97,73.51c8.35,19.69,16.91,39.29,24.93,59.12c4.02,9.96,5.9,20.56,9.68,30.57
			c0.68,1.81,0.53,4.23,2.97,5.05c26.8-2.43,50.93-12.17,74.1-25.56c15.61-9.02,28.88-20.76,42.58-32.11
			c2.36-1.96,3.76-4.6,2.64-7.91C1556.27,1017.85,1552.3,1010.63,1547.98,1003.58z"/>
		<path class="st0" d="M1439.2,1091.45c-6.47-24.37-15.49-47.78-25.73-70.82c-15.13-34.03-28.68-68.65-34.58-105.73
			c-0.92-5.8-1.25-11.69-2.06-17.5c-0.3-2.16,0.5-2.37,2.18-1.93c-1.08-1.92-2.47-3.69-2.54-6.05c-0.14-4.64-2.09-7.36-7.21-6.51
			c-2.74,0.46-2.54-1.96-3.36-3.39c-3.59,0.63-7.14,0.55-10.71-0.25c-2.72-0.61-5.54-1.27-7.94,0.98
			c5.97,16.65,10.15,33.83,15.16,50.76c10.38,35.05,18.72,70.58,24.62,106.65c3.34,20.42,5.66,40.95,5.35,61.71
			c-0.02,1.56-0.61,3.3,0.61,4.74c3.18-0.09,6.36-0.17,9.55-0.26c8.59-0.07,17.18-0.14,25.77-0.21c0.99-0.19,2-0.63,2.96-0.53
			c5.71,0.6,7.79-2.1,7.29-7.54C1438.45,1094.24,1438.98,1092.84,1439.2,1091.45z"/>
		<path class="st15" d="M1347.26,880.26c4.48-0.66,8.75,0.83,13.13,1.21c2.09,0.18,4.52,1.07,5.52-1.94
			c-0.8-3.79-1.55-7.59-2.42-11.36c-0.29-1.24-0.72-2.61,0.27-3.45c1.11-0.95,2.28,0.12,3.35,0.69c6.29,3.4,12.8,6.02,19.96,7.09
			c8.74,1.32,13.14-0.97,15.69-9.4c4.8-15.9,4.64-32.15,1.87-48.29c-1.29-7.52-2.17-15.51-7.43-21.83
			c-11.89,0.3-16.21,11.76-24.83,16.9c-2.42,1.44-4.58,3.32-6.83,5.04c-3.58,2.74-6.86,2.91-10.14-0.64
			c-2.58-2.79-5.99-3.99-9.31-1.71c-3.54,2.42-6.79,5.36-5.8,10.54c0.73,3.82,2.35,7.23,4.29,10.52c4.52,7.7,2.39,12.44-6.44,14.21
			c-1.72,9.82-3.44,19.65-5.16,29.47c3.2,0.06,6.4,0.2,9.6,0.16C1344.77,877.47,1346.54,877.92,1347.26,880.26z"/>
		<path class="st23" d="M1127.23,1539.45c-4.17-1.44-6.78,0.29-7.95,4.23c-2.37,8-2.6,16.1-0.3,24.17c0.55,1.94,1.66,2.78,4.07,2.71
			c13.36-0.41,26.73-0.44,40.09-0.73c17.25-0.38,34.5-0.87,51.76-1.33c3.49-0.09,6.98-0.42,10.47-0.38
			c3.86,0.04,7.81,1.06,7.84-5.19c0.04-6.24-2.08-10.43-7.65-10.55c-17.64-0.37-32.34-9.25-47.88-15.76
			c-3.52-1.47-7.16-2.65-10.74-3.99c-3.18-1.19-6.89-1.54-8.45-5.32c-3.16-0.43-4.26,1.85-5.38,4.1
			c-3.48,6.98-10.25,10.43-17.98,9.07C1132.51,1540.01,1129.97,1539.01,1127.23,1539.45z"/>
		<path class="st23" d="M1464.11,1451.7c-7.27-3.75-12.05-0.81-15.76,9.67c-5.31,15.01-4.48,16.29,10.6,21.24
			c28.98,9.52,57.91,19.21,86.76,29.13c4.09,1.41,6.68,1.89,8.84-2.55c2.3-4.73,2.46-10-2.32-11.73
			c-14.43-5.22-24.07-16.54-35.26-25.87c-6.28-5.24-11.97-11.22-17.83-16.92c-3.88-3.78-5.92-4.12-9.17-0.22
			c-0.89,1.07-2.2,1.79-3.32,2.68c-0.72-0.42-1.56-0.72-2.34-0.55C1476.76,1458.29,1470.45,1454.95,1464.11,1451.7z"/>
		<path class="st15" d="M1182.13,1169.99c-8.62-1.45-17.25-2.91-25.87-4.36c-12.01,10.54-25.92,18.02-40.19,24.92
			c-2.03,0.98-4.2,1.8-6.01,3.1c-3.26,2.35-4.04,5.26-1.43,8.8c5.08,6.87,16.69,8.65,23.17,6.64c7.57-2.35,15.05-4.99,22.64-7.26
			c7.74-2.31,11.53-0.87,16.14,5.67c0.83,1.17,1.37,2.58,2.32,3.62c2.21,2.43,4.98,5.57,8.21,3.83c2.61-1.4,0.14-4.78-0.32-7.25
			c-1.12-6-2.55-11.95-3.46-17.98C1176.26,1182.58,1179.77,1176.39,1182.13,1169.99z"/>
		<path class="st15" d="M1547.98,1003.58c2.26,8.03,6.34,15.19,10.55,22.3c10.83-12.14,26.46-13.15,40.65-17.47
			c2.58-0.79,5.07-1.66,7.35-3.02c1.26-0.75,3.28-1.38,2.35-3.62c-0.63-1.52-1.36-3.03-3.39-3.11c-1.22-0.05-2.44-0.18-3.66-0.26
			c-4.93-0.32-6.93-2.13-5.06-7.5c2.29-6.58,6.59-11.94,9.74-17.97c1.1-2.11,3.52-4.22,1.46-6.57c-2.32-2.65-5.05-0.55-7.2,0.75
			c-12.06,7.32-22.17,17.1-32.68,26.35C1562.21,998.62,1555.24,1001.32,1547.98,1003.58z"/>
		<path class="st15" d="M1127.23,1539.45c7.5,4.72,15.04,2.75,22.54,0.03c2.29-0.83,3.21-2.9,3.84-5.15
			c0.8-2.88,1.88-5.65,4.89-7.03c2.46-4.52,4.92-9.04,7.39-13.55c-8.25-2.33-16.66-3.64-25.21-4.12
			C1136.19,1519.57,1131.71,1529.51,1127.23,1539.45z"/>
		<path class="st15" d="M1464.11,1451.7c6.21,7.22,13.95,8.09,22.54,5.42c2.44-6.56,7.75-11.58,9.86-18.32
			c-7.63-3.24-15.35-6.19-23.46-8.04C1470.07,1437.75,1467.09,1444.72,1464.11,1451.7z"/>
	</g>
	<g>
		<path class="st24" d="M1732.1,1072.2c0-17.5-10.09-31.68-22.55-31.68c-8.06,0-15.13,5.95-19.12,14.89
			c3.67-3.63,8.14-5.77,12.97-5.77c12.45,0,22.55,14.18,22.55,31.68c0,6.17-1.26,11.92-3.43,16.79
			C1728.31,1092.37,1732.1,1082.91,1732.1,1072.2z"/>
		<path class="st25" d="M1703.4,1049.64c-4.83,0-9.3,2.14-12.97,5.77c-2.17,4.87-3.43,10.62-3.43,16.79
			c0,17.5,10.09,31.68,22.55,31.68c4.83,0,9.3-2.14,12.97-5.77c2.17-4.87,3.43-10.62,3.43-16.79
			C1725.95,1063.82,1715.85,1049.64,1703.4,1049.64z"/>
	</g>
	<circle class="st8" cx="510.27" cy="342.17" r="48.08"/>
	<circle class="st8" cx="543.23" cy="200.18" r="37"/>
	<circle class="st8" cx="334.99" cy="252.96" r="24.55"/>
	<circle class="st8" cx="809.83" cy="61.1" r="20.78"/>
	
		<ellipse transform="matrix(0.9761 -0.2175 0.2175 0.9761 4.3252 435.6389)" class="st8" cx="1981.11" cy="198.17" rx="90.72" ry="90.72"/>
	
		<ellipse transform="matrix(0.9761 -0.2175 0.2175 0.9761 -91.417 503.2366)" class="st8" cx="2240.31" cy="666.89" rx="90.72" ry="90.72"/>
	
		<ellipse transform="matrix(0.1494 -0.9888 0.9888 0.1494 1349.0569 2664.3176)" class="st8" cx="2223.02" cy="548.09" rx="64.15" ry="64.15"/>
	
		<ellipse transform="matrix(0.8689 -0.495 0.495 0.8689 218.0258 896.3018)" class="st8" cx="1801.1" cy="36.55" rx="36.55" ry="36.55"/>
	
		<ellipse transform="matrix(0.8689 -0.495 0.495 0.8689 -143.6686 1294.1105)" class="st8" cx="2371.26" cy="918.28" rx="36.55" ry="36.55"/>
	
		<ellipse transform="matrix(0.7079 -0.7064 0.7064 0.7079 23.3855 2110.6387)" class="st8" cx="2563.28" cy="1027.05" rx="61.84" ry="61.73"/>
	
		<ellipse transform="matrix(0.7064 -0.7078 0.7078 0.7064 160.682 2059.7249)" class="st8" cx="2563.28" cy="836.16" rx="27.35" ry="27.3"/>
	<circle class="st8" cx="80.41" cy="987.89" r="41.89"/>
	<circle class="st8" cx="189.32" cy="841.54" r="29.27"/>
	<circle class="st8" cx="38.52" cy="818.56" r="20.44"/>
</g>
</svg>
