<?xml version="1.0" encoding="utf-8"?>
<!-- Generator: Adobe Illustrator 23.0.1, SVG Export Plug-In . SVG Version: 6.00 Build 0)  -->
<svg version="1.1" xmlns="http://www.w3.org/2000/svg" xmlns:xlink="http://www.w3.org/1999/xlink" x="0px" y="0px"
	 viewBox="0 0 2543.69 1457.86" style="enable-background:new 0 0 2543.69 1457.86;" xml:space="preserve">
<style type="text/css">
	.st0{fill:#F1F1EF;}
	.st1{fill:#F05F3E;}
	.st2{fill:#2C355C;}
	.st3{display:none;fill:none;stroke:#2C355C;stroke-width:10;stroke-miterlimit:10;}
	.st4{fill:none;stroke:#F1F1EF;stroke-width:1.5;stroke-miterlimit:10;}
	.st5{fill:none;stroke:#F1F1EF;stroke-width:1.5;stroke-linecap:round;stroke-linejoin:round;stroke-miterlimit:10;}
	.st6{fill:#2C355C;stroke:#F1F1EF;stroke-width:1.5;stroke-linecap:round;stroke-linejoin:round;stroke-miterlimit:10;}
	.st7{fill:none;stroke:#2C355C;stroke-width:15;stroke-miterlimit:10;}
	.st8{fill:none;stroke:#2C355C;stroke-width:15;stroke-linecap:round;stroke-linejoin:round;stroke-miterlimit:10;}
	.st9{fill:none;stroke:#2C355C;stroke-width:10;stroke-linecap:round;stroke-miterlimit:10;}
	.st10{fill:#212845;}
	.st11{fill:none;stroke:#F05F3E;stroke-width:20;stroke-miterlimit:10;}
	.st12{fill:#212845;stroke:#212845;stroke-miterlimit:10;}
	.st13{fill:#A97A2F;}
	.st14{fill:#7E5B23;}
	.st15{fill:#2C7633;}
	.st16{fill:#42210B;}
	.st17{fill:#FFCC99;}
	.st18{fill:#57915C;}
	.st19{fill:none;stroke:#F05F3E;stroke-width:10;stroke-miterlimit:10;}
	.st20{fill:#F0C1B6;}
	.st21{fill:#86B6BC;}
	.st22{fill:#5E9DA5;}
	.st23{fill:#FBB03B;}
	.st24{fill:#F0907A;}
	.st25{fill:#E3E3E3;}
	.st26{fill:#999999;}
	.st27{fill:#CCCCCC;}
	.st28{fill:#C4CED5;}
	.st29{fill:#DCE2E8;}
	.st30{fill:#626383;}
	.st31{fill:#FFFFFF;}
</style>
<g id="prvi_slajd">
</g>
<g id="drugi_slajd">
</g>
<g id="treći_slajd">
</g>
<g id="četvrti_slajd">
</g>
<g id="peti_slajd">
</g>
<g id="šesti_slajd">
</g>
<g id="sedmi_slajd">
</g>
<g id="osmi_slajd">
</g>
<g id="deveti_slajd">
</g>
<g id="deseti_slajd">
</g>
<g id="jedanaesti_slajd">
</g>
<g id="dvanaesti_slajd">
</g>
<g id="rega_ilustracija">
	<g>
		<path class="st10" d="M2521.96,1453.91c13.96-31.14,21.73-65.66,21.73-102c0-128.29-96.79-233.98-221.33-248.02
			c3.27-16.12,4.99-32.8,4.99-49.89c0-129.07-97.96-235.25-223.59-248.27c7.96-24.39,12.26-50.44,12.26-77.48
			c0-137.86-111.75-249.61-249.61-249.61c-54.76,0-105.4,17.63-146.55,47.53c-35.05-18.76-75.09-29.4-117.62-29.4
			c-34.19,0-66.78,6.88-96.46,19.32c-13.01-109.57-97-197.37-204.71-216.14c3.33-16.26,5.08-33.1,5.08-50.35
			C1306.16,111.75,1194.41,0,1056.55,0S806.94,111.75,806.94,249.61c0,31.86,5.97,62.32,16.85,90.34
			C710.67,363.11,617.7,441.6,574.38,545.9c-1.26-0.02-2.52-0.05-3.79-0.05c-110.75,0-200.53,89.78-200.53,200.53
			c0,52.16,19.92,99.67,52.57,135.34c-23.96,23.51-44.51,50.49-60.84,80.12c-12.4-7.69-27.02-12.13-42.68-12.13
			c-44.79,0-81.1,36.31-81.1,81.1c0,3.26,0.2,6.48,0.57,9.65C100.11,1085.43,0,1215.52,0,1368.99c0,29.3,3.66,57.75,10.53,84.92
			H2521.96z"/>
		<g>
			
				<ellipse transform="matrix(0.9777 -0.2102 0.2102 0.9777 -28.7675 405.0195)" class="st10" cx="1891.28" cy="337.86" rx="56.03" ry="56.03"/>
			
				<ellipse transform="matrix(0.9912 -0.1322 0.1322 0.9912 -100.8276 328.7192)" class="st10" cx="2424.89" cy="923.61" rx="38.3" ry="38.3"/>
			
				<ellipse transform="matrix(0.9942 -0.1073 0.1073 0.9942 -67.1785 250.3559)" class="st10" cx="2292.05" cy="749.22" rx="27.08" ry="27.08"/>
			
				<ellipse transform="matrix(0.9941 -0.1086 0.1086 0.9941 -67.5334 267.7379)" class="st10" cx="2424.89" cy="754.03" rx="19.15" ry="19.15"/>
			
				<ellipse transform="matrix(0.9828 -0.1849 0.1849 0.9828 -139.5008 36.1511)" class="st10" cx="124.05" cy="765.91" rx="56.03" ry="56.03"/>
			<circle class="st10" cx="486.46" cy="393.9" r="34.7"/>
			<circle class="st10" cx="665.02" cy="190.99" r="24.52"/>
			<circle class="st10" cx="427.25" cy="159.54" r="17.32"/>
			<circle class="st10" cx="1582.62" cy="194.27" r="120.74"/>
			<circle class="st10" cx="1846" cy="112.1" r="66.41"/>
		</g>
	</g>
	<polygon class="st16" points="1879.02,1431.82 1756.87,1138.08 1870.84,1138.08 1870.84,1113.08 550.93,1113.08 550.93,1138.08 
		664.91,1138.08 542.76,1431.82 565.84,1441.42 683.64,1158.13 801.44,1441.42 824.52,1431.82 702.38,1138.08 1719.4,1138.08 
		1597.25,1431.82 1620.33,1441.42 1738.13,1158.13 1855.93,1441.42 	"/>
	<g>
		<g>
			<path class="st14" d="M1036.71,1175.68c-5.34-7.41-10.68-14.81-16.02-22.22c-8.46-4.86-68.76-26.84-78.3-28.32
				c-2.59,3.24-5.18,6.48-7.78,9.72C951.62,1141.93,1019.69,1168.6,1036.71,1175.68z"/>
			<path class="st28" d="M705.92,1197.77c-1.98-0.05-3.96-0.11-5.93-0.16c-7.46,0.46-14.94-0.72-22.4,0.83
				c-14.46,3.01-25.62,15.67-25.64,30.24c-0.11,61.99-0.13,123.99,0.01,185.98c0.04,16.45,14.62,30.89,31.12,30.91
				c77.16,0.11,154.32,0.1,231.48,0.01c17.2-0.02,31.29-14.73,31.32-32.27c0.06-44.5,0.05-88.99,0.06-133.49
				c-1.17-1.53-2.87-1.61-4.53-1.46c-14.77,1.37-29.57,0.31-44.35,0.66c-2.47,0.06-5.02-0.25-7.26,1.24
				c-1.95,2.45-1.47,5.38-1.48,8.16c-0.04,28.14-0.02,56.29-0.03,84.43c0,1.83,0.03,3.66-0.02,5.5c-0.22,7.41-2.26,9.54-9.58,9.64
				c-9.49,0.12-18.98,0.03-28.48,0.03c-42.3,0-84.6,0-126.9,0c-2.16,0-4.34,0.09-6.49-0.14c-4.77-0.52-6.71-2.51-7.21-7.34
				c-0.17-1.66-0.12-3.33-0.12-4.99c0-35.97,0-71.94,0-107.92c0-0.67,0-1.33,0.01-2c0.14-7.74,1.13-8.95,8.78-10.84
				c2.86-1.17,1.92-2.73,0.17-3.94c-2.83-1.96-6.02-1.71-9.14-0.8c-4.35,1.27-8.16,3.72-12.16,5.77c-7.49,3.83-14.45,9.13-23.6,8.56
				c-3.78-0.24-7.22-1.26-10.41-3.15c-3.78-2.24-4.15-4.94-1.2-8.15c1.93-2.09,4.35-3.62,6.61-5.32
				c10.13-7.6,20.18-15.28,29.01-24.44c6.3-6.54,7.57-14.98,9.24-23.29C706.96,1199.19,706.49,1198.42,705.92,1197.77z"/>
			<path class="st13" d="M889.82,1280.89c18.71,0,37.43,0.37,56.11-1.06c18.59-2.01,37.05-4.77,55.18-9.46
				c1.32-0.34,2.51-0.84,3.64,0.31c13.19-3.48,26.15-7.69,38.65-13.15c4.99-2.18,8.53-6.51,11.25-11.04
				c8.51-14.22,12.23-29.47,7.79-45.88c-2.66-9.84-7.91-17.88-17.78-22.05c-3.19-0.13-5.06-2.79-7.68-4.01
				c-14.39-6.05-28.77-12.11-43.11-18.25c-2.42-1.04-52.34-21.58-55.07-21.74c-2.39,0.26-14.9-3.69-17.87-4.18
				c-15.35-0.68-30.7-0.22-46.05-0.25c-1.64,0-3.32,0.14-4.58,1.47c1.23,12.38,2.23,24.8,3.83,37.13c0.5,3.86-0.85,4.03-3.83,4.02
				c-23.14-0.09-46.27-0.08-69.41-0.1c-1.31-1.18-2.92-1.54-4.6-1.51c-6.76,0.13-13.54-0.68-20.26,0.51
				c-2.04,0.86-1.61,2.5-1.37,4.17c1.19,8.01,4.81,14.93,9.47,21.39c9.95,13.32,23.99,20.26,39.38,24.94
				c14.96,4.54,30.51,6.26,44.56,9.14c-2.51-0.09-5.8,1.68-9.23,2.83c-7.1,2.39-14.09,5.09-21.22,7.41c-1.99,0.65-4.37,1.1-4.41,4
				c3.77,11.67,6.87,23.56,11.37,35c1.24,1.75,3.14,1.93,4.92,1.61c11.22-1.99,22.42,0.1,33.63-0.02
				C885.42,1282.1,887.8,1282.43,889.82,1280.89z"/>
			<path class="st15" d="M922.98,1131.76c11.53,16.51,47.78-5.19,60.67,10.27c1.92,2.3,8.28,2.7,11.34,1.44
				c3.81-2.22,2.63-2.56,4.58-4.45c4.17-5.56,8.91-10.65,13.23-16.09c1.27-1.59,2.23-3.26,2.79-5.18c3.15-2.66,2.13-4.45-0.74-6.83
				c-36.99-30.59-70.36-64.64-98.69-103.49c-16.7-22.9-31.2-47.11-43.38-72.71c-2.51,0.29-1.85,2.39-2.25,3.89
				c0.92,20,4.57,39.62,8.76,59.14c9.44,44.06,24.03,86.5,40.85,128.22C920.93,1127.96,921.75,1129.96,922.98,1131.76z"/>
			<path class="st14" d="M1043.98,1179.59c10.19,4.39,15.65,12.78,17.61,23.07c3.83,20.02-1.1,37.8-16.04,52.11
				c-3.45,3.31-8.61,4.13-13.09,5.74c-7.63,2.75-15.45,4.97-23.16,7.5c-1.67,0.55-3.7,0.63-4.55,2.66
				c4.13,11.26,10.05,21.64,15.8,32.1c11.11,20.21,23.36,39.8,32.6,61.01c3.12,7.15,6.18,14.34,8.06,21.92
				c0.96,3.88,2.6,5.83,6.73,4.8c2.27,0.73,4.54,0.47,6.84,0.14c8.31-1.2,16.58-2.68,24.92-3.72c2.11-0.26,4.28-0.5,5.9-2.18
				c2.86-0.19,3.77-1.26,3.28-4.45c-5.11-33.54-9.8-67.15-15.05-100.68c-4.5-28.74-9.58-57.38-18.61-85.17
				c-4.45-13.71-10.38-25.94-25.46-30.73c-4.6-1.59-7.23-0.06-7.06,4.59C1042.82,1172.07,1042.95,1175.9,1043.98,1179.59z"/>
			<path class="st16" d="M901.68,836.36c3.72,0.7,7.13,0.15,9.18-3.35c1.96-3.35,0.69-6.52-1.73-9.05
				c-1.46-1.53,0.13-1.91,0.54-2.72c2.13-4.24,4.51-8.46-0.24-12.57c-1.52-1.31-0.05-1.98,0.64-2.74c2.28-2.48,4.08-5.22,5.06-8.49
				c2.21-7.36-0.65-12.93-8.09-14.8c-1.91-0.48-2.24-1.61-2.87-2.9c-4.48-9.18-13.11-12.68-22.41-8.81
				c-2.09,0.87-3.44,0.87-5.42-0.31c-8.45-5.04-19.18-4.05-26.46,2.29c-1.48,1.29-2.71,2.5-4.73,1.17
				c-0.14-0.09-0.33-0.22-0.45-0.19c-7.75,2.26-15.93-1.88-23.6,1.56c-2.3,1.03-4.45,2.26-6.01,4.32c-0.82,1.08-1.47,1.86-3.24,1.17
				c-6.1-2.36-10.33,1.09-13.72,5.42c-2.55,3.25-6.03,5.75-8.32,8.77c-4.2,5.53-9.55,9.12-14.7,13.38
				c-5.67,4.69-6.35,11.88-3.87,18.85c0.79,2.21,0.81,3.89,0.07,6.1c-1.77,5.31-2.71,10.77,1.34,15.62c1.46,1.75,0.1,3.08-0.3,4.58
				c-1.78,6.68-3.93,13.42,3.58,18.33c1.43,0.93,0.62,2.43,0.48,3.69c-0.6,5.51,0.64,10.37,5.45,13.59
				c5.07,3.39,10.46,3.08,15.59,0.16c2.05-1.16,3.27-1.55,5.6-0.19c4.93,2.88,12.67,0.84,17.17-4.26c1.96-2.22,3.36-4.06,6.72-2.31
				c1.27,0.66,3.24-0.02,4.9-0.09c3.04-0.72,4.14-3.17,4.93-5.75c0.68-2.22,1.13-4.52,1.76-6.77c1.06-3.8,0.63-6.6-3.84-8.22
				c-4.61-1.67-7.76-8.52-7.16-13.77c0.51-4.47,3.08-7.63,7.1-8.72c6.33-1.72,11.21-0.25,14.72,4.45c0.5,0.67,0.88,1.42,1.39,2.08
				c2.65,3.4,4.86,3.36,7.55-0.15c2.81-3.67,4.07-8.06,5.09-12.41c1.41-5.94,4.7-9.72,10.49-11.55c2.86-0.9,5.6-2.23,7.97-4.1
				c2.58-2.03,4.59-1.19,6.51,0.9c3.53,3.86,6.11,8.32,8.05,13.14C897.39,834.2,898.77,836.12,901.68,836.36z"/>
			<path class="st29" d="M922.98,1131.76c0.88-2.46-0.84-4.33-1.64-6.31c-16.82-41.83-31.34-84.39-40.84-128.54
				c-4.13-19.2-7.48-38.53-8.74-58.16c-0.65-2.33-0.49-4.66,0.06-6.98c-1.86-4.99-0.89-10.17-0.87-15.25
				c0.02-4.39-1.91-6.85-5.98-6.71c-3.43,0.12-4-1.99-4.95-4.19c-2.26,1.27-4.58,1.32-7.15,1.04c-2.99-0.33-6.08-1.96-9.1,0
				c1.2,3.79,2.08,7.71,3.65,11.33c5.2,11.92,6.8,24.41,7.41,37.29c1.9,40.02,5.84,79.9,9.81,119.76
				c1.87,18.85,3.78,37.7,5.67,56.55C887.86,1131.65,905.42,1131.7,922.98,1131.76z"/>
			<path class="st17" d="M843.76,906.66c4.04,0.62,8.09,1.23,12.13,1.85c2.29,0.35,4.39,0.41,4.12-2.89
				c-0.7-4.85-1.4-9.71-2.19-15.22c8.22,4.21,15.71,8.12,24.19,9.57c7.91,1.36,11.68-0.54,14.89-8.07
				c3.51-8.24,4.45-17.01,4.88-25.82c0.43-8.82-0.09-17.62-1.66-26.33c-0.27-1.48-0.7-3.06,1.56-3.39
				c-2.47-1.11-3.49-3.27-4.42-5.66c-2.32-5.95-5.45-11.39-10.71-15.33c-1.44-1.08-2.58-1.89-4.12,0.05
				c-2.38,3.01-5.94,4.19-9.44,5.27c-5.77,1.77-9.24,5.34-10.53,11.39c-1.04,4.86-2.59,9.66-5.7,13.72
				c-1.83,2.39-3.5,2.91-5.07-0.44c-2.46-5.24-6.19-8.21-12.55-7.82c-7.95,0.49-11.75,2.95-12.87,9.68
				c-1.11,6.66,3.09,14.5,9.18,16.35c1.98,0.6,2.47,1.6,2.17,3.14c-1.08,5.59-0.94,11.67-5.79,15.89
				c-1.42,6.95-2.83,13.9-4.25,20.85c4.08,0.29,8.16,0.68,12.24,0.83C841.69,904.36,842.81,905.27,843.76,906.66z"/>
			<path d="M1081.9,1423.61c-6.24,5.75-8.4,13.07-7.98,21.29c0.16,3.13,0.67,6.25,1.08,9.36c0.45,3.4,2.91,3.41,5.58,3.4
				c16.31-0.05,32.62-0.03,48.93-0.03c17.81,0,35.62-0.16,53.42,0.12c4.35,0.07,6.47-1.23,6.82-5.46c0.34-4.18,0.07-7.94-4.71-9.83
				c-2.73-1.08-5.6-1.07-8.32-1.25c-10.82-0.71-19.79-6.38-29.35-10.41c-10.09-4.26-20.05-8.83-29.99-13.46
				c-2.64-1.23-4.43-0.34-6.3,1.24c-2.26,5.72-6.63,8.61-12.57,9.46c-5.71,0.82-10.79-0.51-15.22-4.26
				C1082.93,1423.46,1082.4,1423.48,1081.9,1423.61z"/>
			<path class="st17" d="M1043.98,1179.59c1.67-2.8,1.18-5.62,0.35-8.58c-1.6-5.7-0.53-7.04,5.42-7.29
				c6.6-0.52,12.82,1.58,19.21,2.59c2.6,0.41,6.27,2.06,7.67-1.13c1.3-2.96-1.74-4.96-4.04-6.7c-9.73-7.39-20.29-13.36-31.4-18.36
				c-10.83-4.87-17.91-13.96-25.6-22.38c-5.59,6.84-11.17,13.68-16.76,20.52c3.74,4.11,8.97,5.97,13.5,8.89
				c2.98,1.92,5.72,3.93,7.46,7.08c3.55,5.24,7.11,10.47,10.88,15.55c1.72,2.32,3.82,4.14,6.02,5.91
				C1039.13,1176.99,1040.48,1180.3,1043.98,1179.59z"/>
			<path class="st17" d="M1081.9,1423.61c4.25,5.93,11.94,7.41,21.13,4.61c5.03-1.53,8.26-4,8.07-9.64
				c-1.84-11.28-3.67-22.56-5.51-33.84c-12.59,1.65-25.2,3.25-37.66,5.76C1072.59,1401.54,1077.25,1412.58,1081.9,1423.61z"/>
			<path class="st30" d="M871.82,931.76c-1.88,2.31-0.83,4.65-0.06,6.98c0.68-1.26-0.46-2.97,1.01-4.03
				C872.45,933.73,872.14,932.75,871.82,931.76z"/>
			<path class="st28" d="M834.18,1245.5c0.24-2.58,2.59-2.27,4.13-2.81c10.81-3.82,21.67-7.5,32.63-12.05
				c-8.61-1.66-17.19-3.46-25.82-4.96c-15.83-2.75-31.26-6.54-45.01-15.38c-5.81-3.74-10.6-8.52-14.99-13.77
				c-3.49-0.22-7.07-1.21-10.29,1.1c-13.35,0.05-26.7,0.1-40.06,0.14c-1.06,0.57-1.88,1.38-2.27,2.53
				c-2.92,8.8-6.97,17.34-8.2,26.56c-1.27,9.57,2.6,18.18,7.08,26.42c0.49,0.9,1.49,1.28,2.48,1.55
				c18.12,0.84,36.24,0.29,54.36,0.31c6.48,0.01,12.97-0.22,19.45,0.06C816.97,1253.28,826.14,1250.93,834.18,1245.5z"/>
			<path class="st17" d="M732.9,1253.64c-6.86-12.4-10.33-25.03-3.97-38.9c2.48-5.41,3.91-11.3,5.82-16.98
				c-9.62,0-19.23,0.01-28.84,0.01c-1.28,13.54-6.84,24.64-17.84,33.06c-8.3,6.34-16.27,13.12-24.78,19.2
				c-7.33,5.23-6.75,9.96,1.53,13.64c6.94,3.08,13.93,2.98,20.69-0.35c7-3.45,13.75-7.39,20.76-10.81c4.6-2.24,9.45-3.6,13.67,1.06
				c1.72,4.24,4.98,6.98,9.03,8.7c2.16,0.92,4.75,1.16,6.49-0.87c1.78-2.08,0.05-4.04-0.88-5.92
				C734.2,1254.73,733.46,1254.25,732.9,1253.64z"/>
			<path class="st15" d="M774.77,1173.08c8.7-0.15,17.41-0.29,26.11-0.43c-4.71-10.63-8.99-21.41-11.44-32.83
				c-2.98-13.91-5.34-27.91-6.65-42.1c-0.83-8.98-1.98-17.94-2.53-27c-5.41,33.86-8.49,67.85-6.29,102.18l0.36,0.25L774.77,1173.08z
				"/>
			<path class="st17" d="M808.87,1254.49c-1.3,0.4-2.6,0.8-3.91,1.21c-2.04,0.86-2.37,2.64-2.33,4.54
				c0.16,8.23,3.15,15.18,9.38,20.66c4.74,4.16,9.8,2.89,14.9,0.87c6.01-0.73,12.02-1.45,18.03-2.18
				c-3.07-11.53-6.72-22.87-10.77-34.09C825.74,1248.49,817.31,1251.49,808.87,1254.49z"/>
			<path d="M826.92,1281.77c-1.15-0.03-2.41-0.36-3.44-0.03c-8.72,2.81-12.89-3.18-16.39-9.09c-3.01-5.07-4.34-10.94-2.12-16.95
				c-11.07-1.85-20.36,2.13-29.13,8.44c-2.72,1.96-2.53,3.41-1.23,6.03c11.54,23.22,22.97,46.5,34.39,69.78
				c3.95,8.05,7.89,16.12,11.63,24.27c1.37,2.98,2.85,3.86,6.15,2.67c7.11-2.55,9.08-5.66,6.38-12.66
				c-3.35-8.67-4.02-17.55-4.51-26.75C827.82,1312.23,828.36,1296.96,826.92,1281.77z"/>
		</g>
		<g>
			<path class="st28" d="M1772.62,1233.85c3.63,8.37,8.6,16.08,11.93,24.62c7.6,19.49,11.44,39.71,9.89,60.5
				c-3.11,41.68-21.03,75.95-53.17,102.86c-23.38,19.58-50.36,31.02-80.32,34.68c-43.11,5.28-82.76-4.87-117.22-31.54
				c-31.28-24.2-50.28-56.27-55.94-95.7c-2.38-16.59-1.32-33.12,2.31-49.48c0.28-1.29,0.36-2.62,0.53-3.93
				c1.88-1.94,4.25-1.48,6.56-1.37c24.24,1.14,48.47,1.3,72.71-0.1c4.16-0.24,8.3-0.23,12.43,0.37c3.62,0.53,7.26,0.93,10.89,0.02
				c8.52,0.48,17.08,0.59,25.37,3c0.16,0.47,0.28,1.19-0.22,1.27c-5.14,0.79-5.65,4.51-5.95,8.69c-0.19,2.65-0.59,5.29-0.46,7.95
				c0.64,13.15-1.27,26.22-1.14,39.36c0.06,5.91-3.05,11.18-4.69,16.74c-0.89,3.01-0.67,5.52,1.82,7.67
				c4.24,3.65,7.28,3.17,9.73-1.82c14.76-29.99,29.03-60.23,44.11-90.06c1.68-3.32,1.35-5.45-1.91-7.43
				c-4.12-2.51-8.03-5.34-12.88-6.4c-4.11-0.9-8.19-1.34-12.22,0.35c-8.09-3.44-16.42-6.23-24.76-9c-2.05-0.68-4.02-1.56-5.83-2.77
				c-8.77-4.54-18.42-6.74-27.55-10.29c-2.79-1.09-5.76-1.7-8.44-3.08c-2.25-1.16-2.04-2.45,0.12-3.42c2.76-1.24,5.8-1.44,8.73-2.04
				c15.16-3.08,30.6-4.83,45.19-10.47c18.71-7.22,32.7-18.97,38.68-38.81c0.61-2.04,1.18-4.23,3.4-5.31
				c6.6-1.17,13.22-0.66,19.83-0.35c35.79,10.14,64.59,30.2,85.93,60.79C1770.62,1231.03,1771.57,1232.47,1772.62,1233.85z"/>
			<path class="st20" d="M1685.74,1169.97c-7.39,0-14.78-0.01-22.17-0.01c-2,1.58-4.38,1.39-6.69,1.39
				c-28.42,0.03-56.84,0.04-85.26,0c-7.24-0.01-8.38-0.93-10.58-7.96c-3.54-11.34-4.73-23.08-5.77-34.84
				c-1.1-32.08,2.67-63.75,8.31-95.23c7.78-43.44,18.76-86.13,31.1-128.48c0.28-0.96,0.62-1.9,0.96-2.84
				c3.22-4.2,8.66-5.05,15.32-2.4c3.14-0.18,5.65,1.18,8.26,2.83c45.83,29.01,83.9,65.89,113.32,111.55
				c23.53,36.52,39.95,76.13,51.1,118.02c4.53,17.04,8.05,34.29,10.95,51.67c-1.65,2-4.1,2.03-6.33,2.49
				c-6.35,1.31-12.69,2.66-19.06,3.83c-5.7,1.68-9.29-1.08-12.7-5.37c-21.4-26.97-39.37-56.2-56.79-85.79
				c-4.12-6.99-8.08-14.08-11.64-20.41c3.71,13.99,7.12,28.89,9.85,43.95c2.52,13.94,4.36,27.96,5.69,42.06
				c0.5,5.26-0.52,6.44-5.97,6.67C1693.61,1171.28,1689.69,1170.47,1685.74,1169.97z"/>
			<path class="st21" d="M1556.61,1127.78c1.44,12.05,2.53,24.12,5.99,35.87c1.38,4.69,3.35,6.34,8.52,6.3
				c30.81-0.26,61.63-0.05,92.45,0.01c-6.11,25.79-23.97,39.53-48.07,46.86c-14.01,4.26-28.58,5.83-42.83,8.95
				c-1.76,0.39-3.53,0.78-6.28,1.4c11.92,4.1,22.89,7.83,33.82,11.68c1.53,0.54,3.88,0.23,4.12,2.81c0.03,0.67,0.25-0.16,0.11,0.47
				c-2.47,11.58-5.65,22.94-10.88,33.63c-0.85,0.99-1.52,1.7-3.25,1.43c-8.91-1.37-17.86-0.99-26.86-0.73
				c-22.94,0.66-45.9,1.5-68.83-0.54c-1.32-0.12-2.66-0.04-3.99-0.05c-18.23-2.27-36.42-4.76-54.17-9.68
				c-1.15-0.32-1.9,0.04-2.71,0.64c-13.03-3.49-25.84-7.66-38.26-12.94c-4.92-2.09-8.42-6.19-11.1-10.51
				c-8.25-13.28-12.17-27.63-9.08-43.38c2.56-13.09,9.88-22.28,22.16-27.54c22.96-9.82,45.92-19.64,68.98-29.21
				c12.92-5.36,25.81-10.76,38.8-15.94c2.48-0.99,4.95-2.01,7.73-1.65c11.98,1.18,23.99,0.26,35.98,0.57
				C1551.6,1126.3,1554.35,1125.85,1556.61,1127.78z"/>
			<path class="st23" d="M1544.73,815.72c-2.81-6.43-1.77-10.55,3.98-14.67c10.64-7.62,22.72-10.76,35.65-11.12
				c4.16-0.12,8.33-0.3,12.49-0.4c6.88-0.16,6.8-0.22,7.7-6.83c1.16-8.48,3.82-16.49,8.34-23.83c11.86-19.24,30.1-25.45,51.52-25.48
				c13.72-0.02,26.61,3.67,39.38,8.07c15.22,5.24,30.61,7.8,46.53,3.43c6.66-1.83,12.49-5.38,18.35-8.85
				c1.57-0.93,3.14-1.88,4.67-2.89c30.67-20.31,59.02-11.27,81.91,11.52c8.21,8.17,12.34,18.72,11.14,30.48
				c-1.45,14.21-10.65,22.79-23.27,27.32c-23.48,8.43-46.49,5.8-68.7-5.03c-12.08-5.89-23.2-13.59-36.04-18.09
				c-8.85-3.1-16.44-2.99-24.34,2.88c-15.1,11.22-32.1,11.15-49.65,7.03c-12.28-2.89-24.46-6.54-37.25-6.64
				c-5.9-0.05-11.64,0.67-16.87,3.64c-1.27,0.72-2.9,1.6-2.69,3.27c0.21,1.72,2.15,1.16,3.31,1.58
				c14.33,5.17,21.26,16.36,24.6,30.36c1.44,6.04,1.71,12.24,0.77,18.38c-2.44,16.01-14.16,27.1-31.5,30.06
				c-6.01,1.09-10.91-3.91-9.36-9.63c0.92-3.4,2.92-6.35,4.29-9.56c1.19-2.79,2.09-5.61,1.01-8.7c-2.25-6.48-7.4-8.08-12.85-3.96
				c-5.43,4.1-5.43,4.1-11.28,0.63c-6.91-4.1-13.18-9.03-18.9-14.65c-2.65-2.6-5.2-5.09-9.21-5.42
				C1546.77,818.5,1545.28,817.56,1544.73,815.72z"/>
			<path class="st22" d="M1511.89,1126.62c-10.77,2.94-20.76,7.91-31.01,12.14c-27.47,11.34-54.76,23.09-82.21,34.49
				c-19.39,8.06-24.94,25.37-22.65,43.63c1.59,12.66,6.05,24.42,16.17,33.29c4.06,3.56,9.1,4.64,13.81,6.44
				c7.58,2.9,15.47,5.02,23.2,7.55c1.67,0.55,3.71,0.63,4.56,2.66c-4.13,11.26-10.05,21.64-15.8,32.1
				c-11.11,20.21-23.36,39.8-32.6,61.01c-3.12,7.15-6.18,14.34-8.06,21.92c-0.96,3.88-2.6,5.83-6.73,4.8
				c-2.27,0.73-4.54,0.47-6.84,0.14c-8.31-1.2-16.58-2.68-24.92-3.72c-2.11-0.26-4.28-0.5-5.9-2.18c-2.86-0.19-3.77-1.26-3.28-4.45
				c5.11-33.55,9.74-67.17,15.07-100.68c4.88-30.7,10.14-61.32,20.59-90.81c4.48-12.64,12.21-20.77,25-25.54
				c33.53-12.52,67.97-21.94,102.37-31.57c5.92-1.66,11.89-3.12,17.84-4.68C1511.75,1124.01,1512.1,1125.2,1511.89,1126.62z"/>
			<path class="st24" d="M1510.56,1115.66c-15.41,0.33-29.99-3.63-44.22-8.93c-28.07-10.46-53.32-25.55-74.87-46.55
				c-1.75-1.71-4.03-3.28-2.12-6.25c1.61-8.23,4.88-15.71,10.04-22.35c1.18-3.2,3.27-1.31,4.91-0.74
				c15.69,5.42,31.31,11.03,47.62,14.39c12.95,2.67,25.9,4.1,39,0.68c7.45-1.95,13.16-6.03,17.53-12.29
				c8.72-12.51,14.27-26.59,20.2-40.47c9.71-22.74,18.67-45.84,32.19-66.74c1.89-2.92,3.88-5.78,5.83-8.67
				c3.53,1.35,2.33,4.41,2.14,6.77c-1.58,19.3-5.31,38.19-10.68,56.79c-6.34,21.96-14.86,43.09-23.3,64.28
				c-8.57,21.49-17.33,42.92-22.16,65.67C1512.31,1112.85,1512.03,1114.56,1510.56,1115.66z"/>
			<path class="st29" d="M1510.56,1115.66c2.73-17.01,8.5-33.13,14.6-49.13c10.52-27.64,22.53-54.72,30.95-83.15
				c5.73-19.36,9.7-39.04,11.32-59.17c0.17-2.1,1.45-4.56-0.77-6.46c0.79-1.48,1.02-3.06,1.02-4.74c0-4.56,1.61-7.82,6.91-7.18
				c3.36,0.41,2.61-2.71,3.91-4.05c3.31,2,6.71,0.72,10.09,0.3c2.72-0.34,5.5-1.44,8.05,0.58c-7.7,27.87-15.57,55.7-21.95,83.92
				c-10.51,46.49-19.14,93.22-18.07,141.2c-12.64,0-25.29-0.02-37.93,0.03c-2.36,0.01-4.64-0.13-6.79-1.19
				c-0.87-0.98-1.4-2.11-1.39-3.44C1510.52,1120.67,1510.54,1118.17,1510.56,1115.66z"/>
			<path class="st17" d="M1596.63,902.66c-4.77-0.04-9.39,1.04-14.03,1.89c-2.29,0.42-4.36,0.56-4.1-2.78
				c0.7-4.85,1.4-9.71,2.2-15.21c-8.21,4.18-15.68,8.1-24.15,9.56c-7.93,1.36-11.68-0.52-14.92-8c-2.81-6.49-3.94-13.37-4.48-20.33
				c-1.34-17.24-0.32-34.19,6.59-50.36c0.26-0.6,0.66-1.15,1-1.72c9.9,1.73,15.66,9.6,22.86,15.35c2.46,1.96,5.11,3.68,7.68,5.5
				c4.2,2.96,8.05,5.46,12.55-0.16c2.19-2.73,6.1-3.35,9.53-0.98c3.88,2.69,5.72,6.42,5.04,11.14c-0.5,3.49-2.19,6.57-3.88,9.63
				c-4.39,7.96-2.58,11.9,6.25,13.74c2.07,9.89,4.14,19.78,6.21,29.68c-3.29,0.07-6.6,0.32-9.88,0.13
				C1598.68,899.6,1597.4,900.59,1596.63,902.66z"/>
			<path class="st25" d="M1356.6,1419.77c6.24,5.75,8.4,13.07,7.98,21.29c-0.16,3.13-0.67,6.25-1.08,9.36
				c-0.45,3.4-2.91,3.41-5.58,3.4c-16.31-0.05-32.62-0.03-48.93-0.03c-17.81,0-35.62-0.16-53.43,0.12
				c-4.35,0.07-6.47-1.23-6.82-5.46c-0.34-4.18-0.07-7.94,4.71-9.83c2.73-1.08,5.6-1.07,8.32-1.25
				c10.82-0.71,19.79-6.38,29.35-10.41c10.09-4.26,20.05-8.83,29.99-13.46c2.64-1.23,4.43-0.34,6.3,1.24
				c2.26,5.72,6.63,8.61,12.57,9.46c5.71,0.82,10.79-0.51,15.22-4.26C1355.58,1419.62,1356.11,1419.64,1356.6,1419.77z"/>
			<path class="st17" d="M1768.29,1188.97c8.77-1.77,17.53-3.53,26.3-5.3c12.12,10.69,26.76,17.09,41,24.2
				c3.71,1.85,9.05,2.6,8.85,8.14c-0.19,5.3-5.09,7-9.03,8.96c-7.02,3.49-14.22,2.28-21.34,0.13c-6.03-1.82-11.99-3.89-18.06-5.56
				c-6.58-1.81-10.21-0.28-14.04,5.36c-2.48,3.65-4.13,8.16-9.35,8.94c-3.08,0.22-3.2-1.75-2.95-3.99
				c-0.95-2.33-0.07-4.55,0.44-6.79c1.06-4.67,2.11-9.3,2.18-14.15c0.08-5.37-0.29-10.53-3.19-15.26
				C1768.25,1192.29,1767.52,1190.71,1768.29,1188.97z"/>
			<path class="st17" d="M1399.39,1031.59c-3.35,7.45-6.69,14.9-10.04,22.35c-8.38-8.06-18.2-12.86-29.88-14.2
				c-6.25-0.72-12.33-2.71-18.12-5.28c-1.57-0.69-3.82-1.32-3.64-3.58c0.19-2.33,2.34-3,4.26-3.65c0.47-0.16,0.97-0.22,1.46-0.29
				c8.35-1.25,9.16-2.82,5.45-10.52c-2.76-5.71-6.59-10.77-9.88-16.15c-1.02-1.67-2.41-3.7-0.77-5.49c1.77-1.94,4.06-0.88,5.97,0.16
				c8.8,4.8,17.26,10.35,24.15,17.52C1377.17,1021.63,1387.86,1027.14,1399.39,1031.59z"/>
			<path class="st17" d="M1356.6,1419.77c-4.25,5.93-11.94,7.41-21.13,4.61c-5.03-1.53-8.26-4-8.07-9.64
				c1.84-11.28,3.67-22.56,5.51-33.84c12.59,1.65,25.2,3.25,37.66,5.76C1365.92,1397.7,1361.26,1408.73,1356.6,1419.77z"/>
			<path class="st25" d="M1634.82,1253.81c2.88-4.84,7.3-2.06,10.8-1.68c7.15,0.77,12.7,5.38,18.44,9.33
				c1.21,0.84,1.48,1.64,0.76,2.88c-0.33,0.57-0.59,1.19-0.89,1.79c-11.23,22.82-22.48,45.63-33.68,68.46
				c-4.1,8.35-8.23,16.69-12.03,25.18c-1.64,3.66-3.54,4.6-7.27,3.05c-4.85-2.01-7.7-5.36-6.82-8.99c0.35-1.45,0.84-2.87,1.43-4.24
				c3.45-8.1,3.76-16.59,4.31-25.28c0.89-14.07,0.06-28.18,1.67-42.21c0.65-5.68,4.8-2.28,7.18-3.4
				c8.84-4.2,13.67-11.14,14.49-20.92C1633.32,1256.35,1633.33,1254.74,1634.82,1253.81z"/>
			<path class="st17" d="M1634.82,1253.81c-0.43,8.81-2.34,16.94-9.83,22.74c-1.91,1.48-3.8,2.56-6.28,2.16
				c-8.39-0.98-16.77-1.96-25.16-2.94c3.07-11.53,6.72-22.88,10.77-34.1c9.05,3.21,18.11,6.4,27.15,9.64
				C1632.82,1251.77,1634.53,1251.89,1634.82,1253.81z"/>
		</g>
		<path class="st18" d="M700.82,1189.18c3.51-36.65,9.95-72.77,20.17-108.17c12.1-41.91,29.04-81.08,52.29-116.68
			c-9.53-0.75-21.05-4.26-25.75-16.02c-8.64-21.6-8.16-43.07,8.64-46.26c15.67-2.97,58.56-5.26,74.35,0.49
			c5.6-1.3,10.88,0.08,14.23,3.9c1.35,3.06,2.29,6.26,3.42,9.39c3.73,10.31,7.69,20.45,7.6,31.83c-0.05,5.91,0.32,11.96,0.88,17.92
			c1.45,15.4,2.37,30.84,3.65,46.26c1.67,20.23,3.64,40.43,5.51,60.64c1.82,19.72,4,39.4,5.84,59.11c1.7,11.5,2.64,23.09,3.8,34.65
			c0.73,7.23-0.03,7.93-7.54,7.95c-20.11,0.06-40.21,0.03-60.32,0.01c-2.15,0-4.33,0.09-6.37-0.86c-4.11-3.98-5.82-9.26-7.58-14.42
			c-9.54-27.94-12.94-56.86-13.72-86.18c-0.07,5.1-0.38,10.21-1.07,15.3c-3.05,22.62-3.6,45.4-4.44,68.16
			c-0.21,5.64-12.39,26.71-16.92,30.19c-10.08,7.74-19.26,12.88-21.26,12.88c-11.33,0-20.37,0.09-29.92-0.19
			c-2.2-0.09-4.52,0.36-6.32-1.46C700.26,1194.8,700.55,1191.99,700.82,1189.18z"/>
	</g>
	<g>
		<path class="st28" d="M1376.6,750.02h-331.43c-26.51,0-48,21.49-48,48v208.44c0,26.51,21.49,48,48,48h113.17v19.86l-23.86,26.52
			c-1.44,1.6-2.25,3.73-2.02,5.87c0.43,4,3.73,6.78,7.47,6.78h70.96h70.77c2.16,0,4.28-0.82,5.72-2.42
			c2.68-2.99,2.55-7.31,0.04-10.09l-23.99-26.66v-19.86h113.17c26.51,0,48-21.49,48-48V798.02
			C1424.61,771.51,1403.11,750.02,1376.6,750.02z M1045.17,765.02h331.43c18.23,0,33,14.78,33,33v166.92h-397.44V798.02
			C1012.17,779.8,1026.94,765.02,1045.17,765.02z M1265.01,1098.5h-54.12h-54.12l14.65-16.28c1.24-1.38,1.92-3.16,1.92-5.02v-10.5
			h75.1v10.5c0,1.85,0.69,3.64,1.92,5.02L1265.01,1098.5z M1376.6,1039.46h-331.43c-18.23,0-33-14.78-33-33v-26.52h397.44v26.52
			C1409.61,1024.69,1394.83,1039.46,1376.6,1039.46z"/>
		<path class="st1" d="M1045.17,765.02h331.43c18.23,0,33,14.78,33,33v166.92h-397.44V798.02
			C1012.17,779.8,1026.94,765.02,1045.17,765.02z"/>
		<g>
			<path class="st31" d="M1268.22,807.65h-47.78v33.98h-32.92v32.92h-33.98v47.78h47.78v-33.98h32.92v-32.92h33.98V807.65z
				 M1187.53,908.52h-20.17v-20.17h20.17V908.52z M1220.44,874.54h-19.11v-19.11h19.11V874.54z M1254.42,841.62h-20.17v-20.17h20.17
				V841.62z"/>
		</g>
	</g>
</g>
</svg>
